<?xml version="1.0" encoding="UTF-8" standalone="no"?>
<!-- Created with Inkscape (http://www.inkscape.org/) -->

<svg
   xmlns:dc="http://purl.org/dc/elements/1.1/"
   xmlns:cc="http://creativecommons.org/ns#"
   xmlns:rdf="http://www.w3.org/1999/02/22-rdf-syntax-ns#"
   xmlns:svg="http://www.w3.org/2000/svg"
   xmlns="http://www.w3.org/2000/svg"
   xmlns:sodipodi="http://sodipodi.sourceforge.net/DTD/sodipodi-0.dtd"
   xmlns:inkscape="http://www.inkscape.org/namespaces/inkscape"
   width="125.30817mm"
   height="118.05151mm"
   viewBox="0 0 444.00531 418.29274"
   id="svg4280"
   version="1.1"
   inkscape:version="0.91 r13725"
   sodipodi:docname=" boat_line_art.svg">
  <defs
     id="defs4282">
    <inkscape:path-effect
       effect="skeletal"
       id="path-effect4967"
       is_visible="true"
       pattern="M 0,5 C 0,2.24 2.24,0 5,0 7.76,0 10,2.24 10,5 10,7.76 7.76,10 5,10 2.24,10 0,7.76 0,5 Z"
       copytype="single_stretched"
       prop_scale="1"
       scale_y_rel="false"
       spacing="0"
       normal_offset="0"
       tang_offset="0"
       prop_units="false"
       vertical_pattern="false"
       fuse_tolerance="0" />
    <inkscape:path-effect
       effect="skeletal"
       id="path-effect4963"
       is_visible="true"
       pattern="M 0,5 C 0,2.24 2.24,0 5,0 7.76,0 10,2.24 10,5 10,7.76 7.76,10 5,10 2.24,10 0,7.76 0,5 Z"
       copytype="single_stretched"
       prop_scale="1"
       scale_y_rel="false"
       spacing="0"
       normal_offset="0"
       tang_offset="0"
       prop_units="false"
       vertical_pattern="false"
       fuse_tolerance="0" />
    <inkscape:path-effect
       effect="skeletal"
       id="path-effect4959"
       is_visible="true"
       pattern="M 0,5 C 0,2.24 2.24,0 5,0 7.76,0 10,2.24 10,5 10,7.76 7.76,10 5,10 2.24,10 0,7.76 0,5 Z"
       copytype="single_stretched"
       prop_scale="1"
       scale_y_rel="false"
       spacing="0"
       normal_offset="0"
       tang_offset="0"
       prop_units="false"
       vertical_pattern="false"
       fuse_tolerance="0" />
    <inkscape:path-effect
       effect="skeletal"
       id="path-effect4955"
       is_visible="true"
       pattern="M 0,5 C 0,2.24 2.24,0 5,0 7.76,0 10,2.24 10,5 10,7.76 7.76,10 5,10 2.24,10 0,7.76 0,5 Z"
       copytype="single_stretched"
       prop_scale="1"
       scale_y_rel="false"
       spacing="0"
       normal_offset="0"
       tang_offset="0"
       prop_units="false"
       vertical_pattern="false"
       fuse_tolerance="0" />
    <inkscape:path-effect
       effect="skeletal"
       id="path-effect4951"
       is_visible="true"
       pattern="M 0,5 C 0,2.24 2.24,0 5,0 7.76,0 10,2.24 10,5 10,7.76 7.76,10 5,10 2.24,10 0,7.76 0,5 Z"
       copytype="single_stretched"
       prop_scale="1"
       scale_y_rel="false"
       spacing="0"
       normal_offset="0"
       tang_offset="0"
       prop_units="false"
       vertical_pattern="false"
       fuse_tolerance="0" />
    <inkscape:path-effect
       effect="skeletal"
       id="path-effect4947"
       is_visible="true"
       pattern="m -5.6568544,5 c 0,-2.76 2.2400001,-5 5.00000008,-5 2.75999992,0 4.99999992,2.24 4.99999992,5 0,2.76 -2.24,5 -4.99999992,5 C -3.4168543,10 -5.6568544,7.76 -5.6568544,5 Z"
       copytype="single_stretched"
       prop_scale="1"
       scale_y_rel="false"
       spacing="0"
       normal_offset="0"
       tang_offset="0"
       prop_units="false"
       vertical_pattern="false"
       fuse_tolerance="0" />
    <inkscape:path-effect
       effect="skeletal"
       id="path-effect4941"
       is_visible="true"
       pattern="M 0,5 C 0,2.24 2.24,0 5,0 7.76,0 10,2.24 10,5 10,7.76 7.76,10 5,10 2.24,10 0,7.76 0,5 Z"
       copytype="single_stretched"
       prop_scale="1"
       scale_y_rel="false"
       spacing="0"
       normal_offset="0"
       tang_offset="0"
       prop_units="false"
       vertical_pattern="false"
       fuse_tolerance="0" />
    <inkscape:path-effect
       effect="skeletal"
       id="path-effect4937"
       is_visible="true"
       pattern="M 0,5 C 0,2.24 2.24,0 5,0 7.76,0 10,2.24 10,5 10,7.76 7.76,10 5,10 2.24,10 0,7.76 0,5 Z"
       copytype="single_stretched"
       prop_scale="1"
       scale_y_rel="false"
       spacing="0"
       normal_offset="0"
       tang_offset="0"
       prop_units="false"
       vertical_pattern="false"
       fuse_tolerance="0" />
    <inkscape:path-effect
       effect="skeletal"
       id="path-effect4933"
       is_visible="true"
       pattern="M 0,5 C 0,2.24 2.24,0 5,0 7.76,0 10,2.24 10,5 10,7.76 7.76,10 5,10 2.24,10 0,7.76 0,5 Z"
       copytype="single_stretched"
       prop_scale="1"
       scale_y_rel="false"
       spacing="0"
       normal_offset="0"
       tang_offset="0"
       prop_units="false"
       vertical_pattern="false"
       fuse_tolerance="0" />
  </defs>
  <sodipodi:namedview
     id="base"
     pagecolor="#ffffff"
     bordercolor="#666666"
     borderopacity="1.0"
     inkscape:pageopacity="0.0"
     inkscape:pageshadow="2"
     inkscape:zoom="0.35355339"
     inkscape:cx="371.86942"
     inkscape:cy="103.59998"
     inkscape:document-units="px"
     inkscape:current-layer="layer1"
     showgrid="false"
     fit-margin-top="0"
     fit-margin-left="0"
     fit-margin-right="0"
     fit-margin-bottom="0"
     inkscape:window-width="1024"
     inkscape:window-height="735"
     inkscape:window-x="0"
     inkscape:window-y="0"
     inkscape:window-maximized="1" />
  <metadata
     id="metadata4285">
    <rdf:RDF>
      <cc:Work
         rdf:about="">
        <dc:format>image/svg+xml</dc:format>
        <dc:type
           rdf:resource="http://purl.org/dc/dcmitype/StillImage" />
        <dc:title></dc:title>
      </cc:Work>
    </rdf:RDF>
  </metadata>
  <g
     inkscape:label="Layer 1"
     inkscape:groupmode="layer"
     id="layer1"
     transform="translate(-61.997196,-257.59252)">
    <g
       id="g4975">
      <path
         sodipodi:nodetypes="cc"
         inkscape:connector-curvature="0"
         inkscape:original-d="M 61.999352,611.98957 C 244.37829,664.01702 387.07636,630.41732 506,545.51489"
         inkscape:path-effect="#path-effect4933"
         id="path4931"
         d="m 61.999352,611.98957 c 0.485692,-1.70256 25.584941,5.47812 67.189108,11.99947 41.60799,6.52194 99.34935,12.05625 162.545,3.51269 5.12646,-0.69306 10.20063,-1.46651 15.22309,-2.31873 39.25614,-6.63687 74.01624,-17.74196 103.46536,-30.0224 59.8895,-24.9681 93.87693,-52.02854 95.57809,-49.64571 0.33006,0.46232 -31.8417,30.25599 -92.21986,57.39677 -29.63191,13.3168 -65.02675,25.20489 -105.14586,32.10721 -5.13601,0.88053 -10.32506,1.67422 -15.56658,2.37901 -64.68713,8.69806 -123.37194,1.9548 -165.12674,-6.43465 C 86.159856,622.5685 61.733023,612.92317 61.999352,611.98957 Z"
         style="fill:#000000;fill-rule:evenodd;stroke:none;stroke-width:1px;stroke-linecap:butt;stroke-linejoin:miter;stroke-opacity:1" />
      <path
         inkscape:connector-curvature="0"
         id="path4935"
         d="m 391.6877,616.50969 c 1.13127,0.72487 -1.50925,5.91255 -5.09342,16.06722 -3.3303,9.43546 -8.29165,25.74433 -6.63658,43.30835 -35.76683,-0.98446 -76.69289,-1.90983 -129.54932,-2.50652 -60.87706,-0.68724 -119.20618,-0.66213 -151.779314,-1.42921 -4.46286,-3.75222 -8.045835,-7.56804 -10.803408,-11.4635 -2.940813,-4.75385 -4.450951,-9.49843 -5.252683,-13.11652 -1.686933,-7.57496 -1.811345,-11.94984 -1.219272,-12.20699 1.225363,-0.53217 3.257742,3.37443 6.598533,10.37235 1.454492,3.00879 3.538542,6.90702 6.418151,10.23339 1.958442,2.64624 4.34252,5.06805 7.309423,7.55524 35.99299,-2.17815 86.03031,-2.66866 147.03328,-0.31676 47.71957,1.83976 92.60838,5.03604 125.69928,7.7317 -6.69518,-40.78378 19.80442,-52.60821 17.27533,-54.22875 z"
         style="fill:#000000;fill-rule:evenodd;stroke:none;stroke-width:1px;stroke-linecap:butt;stroke-linejoin:miter;stroke-opacity:1" />
      <path
         sodipodi:nodetypes="ccc"
         inkscape:connector-curvature="0"
         inkscape:original-d="m 311.59294,378.7011 c 25.98988,88.40884 63.67044,138.82298 102.8476,184.37314 -18.36966,3.05575 -36.13085,9.15392 -57.69499,-3.76272"
         inkscape:path-effect="#path-effect4941"
         id="path4939"
         d="m 311.59294,378.7011 c 1.33512,-0.39249 5.68549,11.7412 13.75014,31.23767 8.08607,19.54825 19.88256,46.242 36.98108,74.47554 0,0 0,10e-6 0,10e-6 2.93645,5.26183 6.02437,10.5521 9.27217,15.88115 14.96135,24.54884 31.20468,46.41309 44.74916,63.46942 0,0 -10e-6,10e-6 -10e-6,10e-6 -11.59245,3.17187 -19.734,5.84808 -29.45559,6.61339 -5.8478,-0.0591 -10.9302,-0.94955 -15.17853,-2.25466 0,0 0,0 0,0 -10.98058,-3.39501 -15.16932,-8.47236 -14.96581,-8.81211 0.6674,-1.11422 5.78577,2.40755 16.09214,4.12159 0,0 10e-6,0 10e-6,0 3.97971,0.66977 8.57547,0.95767 13.85436,0.55365 9.62402,0.2466 13.65452,-0.96901 25.84352,-1.60317 0,0 1e-5,0 1e-5,0 -14.52098,-15.59343 -32.68926,-35.75775 -48.71106,-58.14459 -3.51822,-4.91592 -6.85228,-9.82121 -10.00567,-14.73397 0,0 -10e-6,-10e-6 -10e-6,-10e-6 -17.23844,-29.13503 -28.17414,-56.89638 -34.68977,-77.295 -6.50985,-20.38054 -8.62731,-33.18814 -7.53614,-33.50892 z"
         style="fill:#000000;fill-rule:evenodd;stroke:none;stroke-width:1px;stroke-linecap:butt;stroke-linejoin:miter;stroke-opacity:1" />
      <path
         sodipodi:nodetypes="ccc"
         inkscape:connector-curvature="0"
         inkscape:original-d="m 299.6649,397.51468 c 3.60519,83.90072 25.8662,141.15024 52.67804,191.89858 -14.05713,6.33283 -32.49897,9.01174 -66.47467,-1.25424"
         inkscape:path-effect="#path-effect4947"
         id="path4945"
         d="m 299.6649,397.51468 c 1.33901,-0.0575 2.59627,11.77108 5.55019,31.14589 2.95803,19.40175 7.66707,46.23342 16.7962,75.81889 0,0 0,10e-6 0,10e-6 2.19378,7.74733 4.64943,15.62656 7.38644,23.64683 7.96239,23.33227 17.15266,44.46646 25.76004,62.25342 0,0 -1e-5,0 -1e-5,0 -9.96631,5.28812 -19.92007,7.64429 -28.52213,8.24046 -27.03468,-0.53512 -40.68013,-10.74984 -40.76736,-10.46116 0.8995,-2.97693 15.52869,4.66366 40.64624,3.24218 7.26291,0.32951 15.37175,-0.30915 23.0136,-2.95439 -1e-5,-10e-6 0,-10e-6 0,-10e-6 -9.67677,-16.82812 -20.11906,-36.76641 -28.87215,-58.70563 -3.02187,-7.57419 -5.70652,-15.04294 -8.0644,-22.42842 0,0 0,-10e-6 0,-10e-6 -8.94365,-30.50109 -12.52568,-58.12225 -13.77922,-77.96514 -1.2536,-19.84384 -0.25199,-31.78546 0.85256,-31.83292 z"
         style="fill:#000000;fill-rule:evenodd;stroke:none;stroke-width:1px;stroke-linecap:butt;stroke-linejoin:miter;stroke-opacity:1" />
      <path
         inkscape:connector-curvature="0"
         id="path4949"
         d="m 168.82227,588.46885 c -2.93242,-0.98106 10.9963,-35.92137 20.14167,-92.85242 6.14798,-33.01635 10.49414,-71.64541 10.3124,-115.40576 9.48166,4.84163 19.32029,9.86614 29.14864,14.89169 21.20903,10.84485 41.28936,21.14208 60.64395,31.14402 0,0 0,1e-5 0,1e-5 -13.59589,50.13469 -18.31434,93.23885 -20.05351,125.39639 -1.70772,31.5763 -0.59167,50.20315 -2.10731,50.31287 -0.9935,0.072 -4.36607,-18.37785 -4.0685,-49.44038 0.30322,-31.65155 4.53734,-73.96532 18.68986,-123.05501 0,0 10e-6,-2e-5 10e-6,-2e-5 -17.31848,-9.66352 -35.00872,-19.61971 -53.70142,-30.17161 -8.64697,-4.88117 -17.33877,-9.79397 -25.70406,-14.52209 3.16473,42.63023 0.92162,80.05316 -4.60688,112.37842 -11.3186,57.58406 -28.2805,91.46251 -28.69485,91.32389 z"
         style="fill:#000000;fill-rule:evenodd;stroke:none;stroke-width:1px;stroke-linecap:butt;stroke-linejoin:miter;stroke-opacity:1" />
      <path
         id="path4953"
         d="m 188.6775,401.2774 c -0.76484,0.41502 -3.12164,-3.91399 -10.15726,-8.76794 -3.46222,-2.38588 -7.56341,-4.56942 -13.04891,-6.78257 -9.47202,-4.49146 -18.2383,-7.34351 -31.6985,-11.50419 0,0 -1e-5,0 -1e-5,0 2.95328,27.40149 4.62125,61.02244 1.00282,97.3608 -0.4018,4.03518 -0.86086,8.02545 -1.37597,11.97127 -6.59295,38.352 -18.18026,71.27145 -28.74691,96.14228 8.31765,3.86639 15.73962,5.64801 22.68959,5.88698 14.59493,1.50524 21.59373,-4.1056 22.45374,-2.44196 -0.0898,-0.17365 -6.10768,7.57152 -22.69906,7.59101 -8.09063,-0.47655 -17.41072,-3.25416 -27.479791,-9.16295 8.939851,-25.48395 18.517611,-59.36246 23.924641,-99.52263 0.70731,-4.04899 1.37171,-8.14367 1.99058,-12.28325 5.6093,-37.52018 6.39147,-71.43688 5.1682,-99.12715 0,0 1e-5,1e-5 1e-5,1e-5 15.38258,2.61775 26.90086,5.43332 37.12625,9.91289 5.57316,2.81696 9.84774,5.76409 13.20076,8.82361 7.07455,6.44392 8.02252,11.70155 7.64982,11.90379 z"
         style="fill:#000000;fill-rule:evenodd;stroke:none;stroke-width:1px;stroke-linecap:butt;stroke-linejoin:miter;stroke-opacity:1"
         inkscape:connector-curvature="0" />
      <path
         inkscape:connector-curvature="0"
         id="path4957"
         d="m 152.12626,301.39001 c 1.17721,-6.1e-4 2.07369,4.60148 1.48199,11.54525 -0.35837,4.31064 -0.73958,5.98206 -1.23746,10.83601 -0.0447,0.44028 -0.087,0.88366 -0.12615,1.32923 -0.30662,3.49149 -0.36808,6.54554 -0.158,9.44593 0.5075,7.44173 2.57828,12.593 1.32777,13.21701 -0.8521,0.4252 -5.09692,-3.79462 -6.8064,-12.4664 -0.6367,-3.29283 -0.8032,-6.89271 -0.45997,-10.73666 0.0442,-0.49451 0.0959,-0.98382 0.15443,-1.46735 0.48494,-4.03443 1.43798,-8.03998 2.17484,-10.99858 1.56552,-6.33493 2.66832,-10.70378 3.64895,-10.70444 z"
         style="fill:#000000;fill-rule:evenodd;stroke:none;stroke-width:1px;stroke-linecap:butt;stroke-linejoin:miter;stroke-opacity:1" />
      <path
         inkscape:connector-curvature="0"
         id="path4961"
         d="m 217.82194,260.1692 c 0.86647,0.10883 0.8193,5.8945 0.48879,15.15413 -0.3269,9.15835 -0.93459,22.08569 -0.78549,35.9827 0.0221,2.06084 0.0599,4.08582 0.11302,6.08163 0,0 0,0 0,0 0.37043,13.43485 1.29009,22.82139 2.58152,31.55789 1.16676,7.89304 2.25365,12.72158 1.46661,12.98755 -0.69065,0.23339 -3.15059,-4.17057 -5.44079,-12.12113 -2.40098,-8.33512 -4.15186,-18.91506 -4.67705,-32.22044 0,0 0,-10e-6 0,-10e-6 -0.0824,-2.04097 -0.13527,-4.11469 -0.15742,-6.22054 -0.15043,-14.30151 1.15548,-27.24429 2.59266,-36.46012 1.44189,-9.24601 3.01102,-14.84304 3.81815,-14.74166 z"
         style="fill:#000000;fill-rule:evenodd;stroke:none;stroke-width:1px;stroke-linecap:butt;stroke-linejoin:miter;stroke-opacity:1" />
      <path
         inkscape:connector-curvature="0"
         id="path4965"
         d="m 302.83987,257.5929 c 0.86137,0.0577 1.17079,6.12452 1.16977,15.87908 -6.1e-4,7.77016 -0.31705,25.1547 -0.16876,37.9017 0.0826,7.1043 0.28171,13.57206 0.59805,19.78887 0,0 0,10e-6 0,10e-6 0.40108,7.87953 0.98031,13.86017 1.78496,19.48891 1.2021,8.44401 2.60854,13.55958 1.76859,13.85792 -0.63966,0.22719 -3.44248,-4.41898 -5.79149,-13.0202 -1.5098,-5.53435 -2.67167,-12.01994 -3.42751,-19.90973 0,0 0,0 0,0 -0.60096,-6.26565 -0.96024,-12.96989 -1.04508,-20.13403 -0.17529,-14.80178 0.87044,-28.67297 1.95989,-38.21996 1.11003,-9.72724 2.32969,-15.68758 3.15158,-15.63257 z"
         style="fill:#000000;fill-rule:evenodd;stroke:none;stroke-width:1px;stroke-linecap:butt;stroke-linejoin:miter;stroke-opacity:1" />
    </g>
  </g>
</svg>
