<?xml version="1.0" encoding="UTF-8" standalone="no"?>
<!-- Created with Inkscape (http://www.inkscape.org/) -->

<svg
   xmlns:dc="http://purl.org/dc/elements/1.1/"
   xmlns:cc="http://creativecommons.org/ns#"
   xmlns:rdf="http://www.w3.org/1999/02/22-rdf-syntax-ns#"
   xmlns:svg="http://www.w3.org/2000/svg"
   xmlns="http://www.w3.org/2000/svg"
   xmlns:sodipodi="http://sodipodi.sourceforge.net/DTD/sodipodi-0.dtd"
   xmlns:inkscape="http://www.inkscape.org/namespaces/inkscape"
   width="112.04362mm"
   height="157.49283mm"
   viewBox="0 0 397.00494 558.04545"
   id="svg5005"
   version="1.1"
   inkscape:version="0.91 r13725"
   sodipodi:docname="flame_icon.svg">
  <defs
     id="defs5007">
    <inkscape:path-effect
       fuse_tolerance="0"
       vertical_pattern="false"
       prop_units="false"
       tang_offset="0"
       normal_offset="0"
       spacing="0"
       scale_y_rel="false"
       prop_scale="1"
       copytype="single_stretched"
       pattern="m 174.036,115.96551 c 81.99999,0.006 173.86049,27.96236 173.86049,27.96236 0,0 -92.03602,27.94081 -174.03601,27.93416 C 91.860493,171.85556 0,143.89967 0,143.89967 c 0,0 92.036013,-27.94081 174.036,-27.93416 z"
       is_visible="true"
       id="path-effect5734"
       effect="skeletal" />
    <inkscape:path-effect
       is_visible="true"
       id="path-effect5732"
       effect="spiro" />
    <inkscape:path-effect
       effect="skeletal"
       id="path-effect5723"
       is_visible="true"
       pattern="M 174.036,1.1868523e-6 C 256.03599,0.00600119 347.89649,27.962361 347.89649,27.962361 c 0,0 -92.03602,27.94081 -174.03601,27.93416 C 91.860493,55.890051 0,27.934161 0,27.934161 c 0,0 92.036013,-27.94080981 174.036,-27.9341598131477 z"
       copytype="single_stretched"
       prop_scale="1"
       scale_y_rel="false"
       spacing="0"
       normal_offset="0"
       tang_offset="0"
       prop_units="false"
       vertical_pattern="false"
       fuse_tolerance="0" />
    <inkscape:path-effect
       effect="spiro"
       id="path-effect5721"
       is_visible="true" />
    <inkscape:path-effect
       effect="skeletal"
       id="path-effect5712"
       is_visible="true"
       pattern="M 174.036,1.1868523e-6 C 256.03599,0.00600119 347.89649,27.962361 347.89649,27.962361 c 0,0 -92.03602,27.94081 -174.03601,27.93416 C 91.860493,55.890051 0,27.934161 0,27.934161 c 0,0 92.036013,-27.94080981 174.036,-27.9341598131477 z"
       copytype="single_stretched"
       prop_scale="1"
       scale_y_rel="false"
       spacing="0"
       normal_offset="0"
       tang_offset="0"
       prop_units="false"
       vertical_pattern="false"
       fuse_tolerance="0" />
    <inkscape:path-effect
       effect="spiro"
       id="path-effect5710"
       is_visible="true" />
    <inkscape:path-effect
       effect="skeletal"
       id="path-effect5701"
       is_visible="true"
       pattern="M 174.036,1.1868523e-6 C 256.03599,0.00600119 347.89649,27.962361 347.89649,27.962361 c 0,0 -92.03602,27.94081 -174.03601,27.93416 C 91.860493,55.890051 0,27.934161 0,27.934161 c 0,0 92.036013,-27.94080981 174.036,-27.9341598131477 z"
       copytype="single_stretched"
       prop_scale="1"
       scale_y_rel="false"
       spacing="0"
       normal_offset="0"
       tang_offset="0"
       prop_units="false"
       vertical_pattern="false"
       fuse_tolerance="0" />
    <inkscape:path-effect
       effect="spiro"
       id="path-effect5699"
       is_visible="true" />
    <inkscape:path-effect
       effect="skeletal"
       id="path-effect5690"
       is_visible="true"
       pattern="M 174.036,1.1868523e-6 C 256.03599,0.00600119 347.89649,27.962361 347.89649,27.962361 c 0,0 -92.03602,27.94081 -174.03601,27.93416 C 91.860493,55.890051 0,27.934161 0,27.934161 c 0,0 92.036013,-27.94080981 174.036,-27.9341598131477 z"
       copytype="single_stretched"
       prop_scale="1"
       scale_y_rel="false"
       spacing="0"
       normal_offset="0"
       tang_offset="0"
       prop_units="false"
       vertical_pattern="false"
       fuse_tolerance="0" />
    <inkscape:path-effect
       effect="spiro"
       id="path-effect5688"
       is_visible="true" />
    <inkscape:path-effect
       effect="skeletal"
       id="path-effect5668"
       is_visible="true"
       pattern="M 174.036,1.1868523e-6 C 256.03599,0.00600119 347.89649,27.962361 347.89649,27.962361 c 0,0 -92.03602,27.94081 -174.03601,27.93416 C 91.860493,55.890051 0,27.934161 0,27.934161 c 0,0 92.036013,-27.94080981 174.036,-27.9341598131477 z"
       copytype="single_stretched"
       prop_scale="1"
       scale_y_rel="false"
       spacing="0"
       normal_offset="0"
       tang_offset="0"
       prop_units="false"
       vertical_pattern="false"
       fuse_tolerance="0" />
    <inkscape:path-effect
       effect="spiro"
       id="path-effect5666"
       is_visible="true" />
    <inkscape:path-effect
       effect="skeletal"
       id="path-effect5648"
       is_visible="true"
       pattern="M 174.036,2.4363111e-6 C 256.03599,0.01330244 347.89649,57.477242 347.89649,57.477242 c 0,0 -92.03602,57.432938 -174.03601,57.419278 C 91.860493,114.88322 0,57.419282 0,57.419282 c 0,0 92.036013,-57.43293956 174.036,-57.4192795636889 z"
       copytype="single_stretched"
       prop_scale="1"
       scale_y_rel="false"
       spacing="0"
       normal_offset="0"
       tang_offset="0"
       prop_units="false"
       vertical_pattern="false"
       fuse_tolerance="0" />
    <inkscape:path-effect
       effect="spiro"
       id="path-effect5646"
       is_visible="true" />
    <inkscape:path-effect
       effect="skeletal"
       id="path-effect5637"
       is_visible="true"
       pattern="M 174.036,2.4363111e-6 C 256.03599,0.01330244 347.89649,57.477242 347.89649,57.477242 c 0,0 -92.03602,57.432938 -174.03601,57.419278 C 91.860493,114.88322 0,57.419282 0,57.419282 c 0,0 92.036013,-57.43293956 174.036,-57.4192795636889 z"
       copytype="single_stretched"
       prop_scale="1"
       scale_y_rel="false"
       spacing="0"
       normal_offset="0"
       tang_offset="0"
       prop_units="false"
       vertical_pattern="false"
       fuse_tolerance="0" />
    <inkscape:path-effect
       effect="spiro"
       id="path-effect5635"
       is_visible="true" />
    <inkscape:path-effect
       effect="skeletal"
       id="path-effect5626"
       is_visible="true"
       pattern="M 174.036,2.4363111e-6 C 256.03599,0.01330244 347.89649,57.477242 347.89649,57.477242 c 0,0 -92.03602,57.432938 -174.03601,57.419278 C 91.860493,114.88322 0,57.419282 0,57.419282 c 0,0 92.036013,-57.43293956 174.036,-57.4192795636889 z"
       copytype="single_stretched"
       prop_scale="1"
       scale_y_rel="false"
       spacing="0"
       normal_offset="0"
       tang_offset="0"
       prop_units="false"
       vertical_pattern="false"
       fuse_tolerance="0" />
    <inkscape:path-effect
       effect="spiro"
       id="path-effect5624"
       is_visible="true" />
    <inkscape:path-effect
       effect="skeletal"
       id="path-effect5615"
       is_visible="true"
       pattern="M 174.036,2.4363111e-6 C 256.03599,0.01330244 347.89649,57.477242 347.89649,57.477242 c 0,0 -92.03602,57.432938 -174.03601,57.419278 C 91.860493,114.88322 0,57.419282 0,57.419282 c 0,0 92.036013,-57.43293956 174.036,-57.4192795636889 z"
       copytype="single_stretched"
       prop_scale="1"
       scale_y_rel="false"
       spacing="0"
       normal_offset="0"
       tang_offset="0"
       prop_units="false"
       vertical_pattern="false"
       fuse_tolerance="0" />
    <inkscape:path-effect
       effect="spiro"
       id="path-effect5613"
       is_visible="true" />
    <inkscape:path-effect
       effect="skeletal"
       id="path-effect5604"
       is_visible="true"
       pattern="M 174.036,2.4363111e-6 C 256.03599,0.01330244 347.89649,57.477242 347.89649,57.477242 c 0,0 -92.03602,57.432938 -174.03601,57.419278 C 91.860493,114.88322 0,57.419282 0,57.419282 c 0,0 92.036013,-57.43293956 174.036,-57.4192795636889 z"
       copytype="single_stretched"
       prop_scale="1"
       scale_y_rel="false"
       spacing="0"
       normal_offset="0"
       tang_offset="0"
       prop_units="false"
       vertical_pattern="false"
       fuse_tolerance="0" />
    <inkscape:path-effect
       effect="spiro"
       id="path-effect5602"
       is_visible="true" />
    <inkscape:path-effect
       effect="skeletal"
       id="path-effect5593"
       is_visible="true"
       pattern="M 174.036,2.4363111e-6 C 256.03599,0.01330244 347.89649,57.477242 347.89649,57.477242 c 0,0 -92.03602,57.432938 -174.03601,57.419278 C 91.860493,114.88322 0,57.419282 0,57.419282 c 0,0 92.036013,-57.43293956 174.036,-57.4192795636889 z"
       copytype="single_stretched"
       prop_scale="1"
       scale_y_rel="false"
       spacing="0"
       normal_offset="0"
       tang_offset="0"
       prop_units="false"
       vertical_pattern="false"
       fuse_tolerance="0" />
    <inkscape:path-effect
       effect="spiro"
       id="path-effect5591"
       is_visible="true" />
    <inkscape:path-effect
       effect="skeletal"
       id="path-effect5582"
       is_visible="true"
       pattern="M 174.036,2.4363111e-6 C 256.03599,0.01330244 347.89649,57.477242 347.89649,57.477242 c 0,0 -92.03602,57.432938 -174.03601,57.419278 C 91.860493,114.88322 0,57.419282 0,57.419282 c 0,0 92.036013,-57.43293956 174.036,-57.4192795636889 z"
       copytype="single_stretched"
       prop_scale="1"
       scale_y_rel="false"
       spacing="0"
       normal_offset="0"
       tang_offset="0"
       prop_units="false"
       vertical_pattern="false"
       fuse_tolerance="0" />
    <inkscape:path-effect
       effect="spiro"
       id="path-effect5580"
       is_visible="true" />
    <inkscape:path-effect
       effect="skeletal"
       id="path-effect5571"
       is_visible="true"
       pattern="M 174.036,2.4363111e-6 C 256.03599,0.01330244 347.89649,57.477242 347.89649,57.477242 c 0,0 -92.03602,57.432938 -174.03601,57.419278 C 91.860493,114.88322 0,57.419282 0,57.419282 c 0,0 92.036013,-57.43293956 174.036,-57.4192795636889 z"
       copytype="single_stretched"
       prop_scale="1"
       scale_y_rel="false"
       spacing="0"
       normal_offset="0"
       tang_offset="0"
       prop_units="false"
       vertical_pattern="false"
       fuse_tolerance="0" />
    <inkscape:path-effect
       effect="spiro"
       id="path-effect5569"
       is_visible="true" />
  </defs>
  <sodipodi:namedview
     id="base"
     pagecolor="#ffffff"
     bordercolor="#666666"
     borderopacity="1.0"
     inkscape:pageopacity="0.0"
     inkscape:pageshadow="2"
     inkscape:zoom="0.35355339"
     inkscape:cx="420.97678"
     inkscape:cy="310.1868"
     inkscape:document-units="px"
     inkscape:current-layer="layer1"
     showgrid="false"
     showguides="false"
     inkscape:guide-bbox="true"
     inkscape:window-width="1024"
     inkscape:window-height="735"
     inkscape:window-x="0"
     inkscape:window-y="0"
     inkscape:window-maximized="1"
     fit-margin-top="0"
     fit-margin-left="0"
     fit-margin-right="0"
     fit-margin-bottom="0">
    <sodipodi:guide
       position="176.90672,376.94512"
       orientation="1,0"
       id="guide5556" />
  </sodipodi:namedview>
  <metadata
     id="metadata5010">
    <rdf:RDF>
      <cc:Work
         rdf:about="">
        <dc:format>image/svg+xml</dc:format>
        <dc:type
           rdf:resource="http://purl.org/dc/dcmitype/StillImage" />
        <dc:title></dc:title>
      </cc:Work>
    </rdf:RDF>
  </metadata>
  <g
     inkscape:label="Layer 1"
     inkscape:groupmode="layer"
     id="layer1"
     transform="translate(-52.093278,-147.26188)">
    <g
       id="g5740"
       style="fill:#ff6600">
      <path
         inkscape:connector-curvature="0"
         id="path5719"
         d="m 341.31117,406.2158 c 9.63369,9.68453 19.74893,19.80486 29.68379,30.37979 23.53116,24.63712 45.43345,51.92958 60.68363,83.69366 17.5899,36.14364 21.40058,74.06562 13.49431,105.90367 0,0 -1e-5,2e-5 -1e-5,2e-5 -5.40354,20.92348 -15.74437,37.27021 -25.98546,48.85218 -22.64611,25.66137 -42.88726,30.26219 -42.88726,30.26219 0,0 17.45939,-11.02212 31.2399,-38.28309 6.21151,-12.32122 11.20298,-27.87185 11.64204,-44.84237 -1e-5,0 0,-1e-5 0,-1e-5 1.02637,-26.18019 -8.7029,-53.41736 -26.27476,-80.25364 -15.77507,-23.8103 -37.09002,-44.14109 -60.63834,-66.75692 -10.23916,-9.6663 -20.63173,-19.42416 -30.90631,-29.81441 -12.92018,-13.06561 -25.77983,-27.2613 -37.55511,-43.00966 -22.08377,-29.09399 -37.765,-63.28669 -41.75887,-99.46401 -3.98005,-39.98282 8.33813,-75.21024 25.51835,-100.04385 0,0 2e-5,-1e-5 2e-5,-1e-5 17.53051,-25.2749 39.28461,-39.29974 54.22779,-46.53595 15.2895,-7.40392 24.73924,-9.04151 24.73924,-9.04151 0,0 -8.52274,4.52522 -20.62468,15.25948 -12.01616,10.65818 -27.35746,27.97498 -36.91094,52.08382 0,0 0,2e-5 0,2e-5 -9.36258,23.5283 -12.61879,52.82367 -4.95117,81.11496 6.5911,25.90965 22.51054,49.72342 42.03209,73.13159 10.78967,12.72075 22.8404,24.90719 35.23175,37.36405 z"
         style="fill:#ff6600;fill-rule:evenodd;stroke:none;stroke-width:1px;stroke-linecap:butt;stroke-linejoin:miter;stroke-opacity:1" />
      <path
         inkscape:connector-curvature="0"
         id="path5730"
         d="m 154.06329,512.46702 c 7.37874,-7.25945 15.12696,-14.92631 22.78502,-23.05229 18.16025,-18.86038 35.16757,-40.34024 47.01053,-65.41007 13.73137,-28.5561 16.24244,-58.73608 9.65665,-83.78408 0,0 0,-10e-6 0,-10e-6 -4.54054,-16.4901 -12.94016,-29.14611 -21.14229,-37.98733 -18.13783,-19.59968 -33.88626,-22.50276 -33.88626,-22.50276 0,0 12.90427,9.29263 22.15642,30.40255 4.1637,9.53736 7.22521,21.34425 6.84119,33.82912 0,0 -1e-5,10e-6 -1e-5,10e-6 -0.2384,19.31952 -8.55022,38.75197 -22.17066,58.00301 -12.28862,17.11339 -28.62879,31.63178 -46.78977,48.4747 -7.90324,7.1653 -15.96495,14.50764 -23.9441,22.41747 -10.03884,9.95161 -20.076123,20.93147 -29.317833,33.22597 -17.39683,22.70193 -29.623692,49.90865 -32.663052,78.71015 -2.93366,31.87949 7.25885,59.57446 21.099122,78.83352 0,0 0,10e-6 0,10e-6 14.12419,19.59098 31.382493,30.06247 43.082263,35.31448 11.99379,5.38401 19.30742,6.36584 19.30742,6.36584 0,0 -6.35726,-3.85957 -15.12829,-12.5406 -8.73144,-8.64184 -19.5551,-22.34155 -25.709213,-40.68289 0,0 0,-10e-6 0,-10e-6 -6.03489,-17.87226 -7.23054,-39.54161 -0.72916,-59.69255 5.529163,-18.50595 17.887593,-35.33317 32.663423,-52.3763 8.20729,-9.25568 17.39422,-18.2168 26.8786,-27.54794 z"
         style="fill:#ff6600;fill-rule:evenodd;stroke:none;stroke-width:1px;stroke-linecap:butt;stroke-linejoin:miter;stroke-opacity:1" />
      <path
         sodipodi:nodetypes="scccccccccccsccccscsccccs"
         style="fill:#ff6600;fill-rule:evenodd;stroke:none;stroke-width:1px;stroke-linecap:butt;stroke-linejoin:miter;stroke-opacity:1"
         d="m 290.1063,432.37952 c 4.71449,4.73937 9.66464,9.69201 14.52652,14.86712 11.51557,12.0568 22.23401,25.41306 29.69708,40.95763 8.60806,17.68781 10.47292,36.2459 6.60379,51.82666 l -1e-5,10e-6 c -2.64436,10.23943 -7.70491,18.23912 -12.71665,23.90706 -11.08245,12.55804 -20.98797,14.80957 -20.98797,14.80957 0,0 8.5442,-5.39395 15.28804,-18.73481 3.03976,-6.0297 5.48247,-13.63979 5.69733,-21.94475 l 0,0 c 0.50228,-12.81195 -4.25899,-26.14116 -12.85822,-39.27417 -7.71994,-11.65218 -18.15095,-21.60157 -29.67492,-32.6692 -5.0108,-4.73046 -10.09667,-9.50571 -15.12479,-14.59044 -6.32283,-6.394 -12.61602,-13.34102 -18.37855,-21.04788 -10.80726,-14.23789 -18.48127,-30.97096 -20.43577,-48.67525 -1.94774,-19.56661 4.08047,-36.80605 12.48805,-48.95901 l 2e-5,0 c 8.57899,-12.36892 19.22492,-19.23234 26.53774,-22.77356 7.48231,-3.6233 -20.06658,6.18191 -20.06658,6.18191 0,0 10.67843,0.0932 4.75603,5.34629 -5.88041,5.21586 3.93605,5.20499 -0.73919,17.00327 l 0,1e-5 c -4.58182,11.51417 -6.17533,25.85061 -2.42298,39.69567 3.22552,12.67955 11.01611,24.33343 20.56948,35.78881 5.28019,6.22522 11.17753,12.18897 17.24155,18.28506 z"
         id="path5738"
         inkscape:connector-curvature="0" />
    </g>
  </g>
</svg>
