<?xml version="1.0" encoding="UTF-8" standalone="no"?>
<!-- Created with Inkscape (http://www.inkscape.org/) -->

<svg
   xmlns:dc="http://purl.org/dc/elements/1.1/"
   xmlns:cc="http://creativecommons.org/ns#"
   xmlns:rdf="http://www.w3.org/1999/02/22-rdf-syntax-ns#"
   xmlns:svg="http://www.w3.org/2000/svg"
   xmlns="http://www.w3.org/2000/svg"
   xmlns:sodipodi="http://sodipodi.sourceforge.net/DTD/sodipodi-0.dtd"
   xmlns:inkscape="http://www.inkscape.org/namespaces/inkscape"
   width="112.72573mm"
   height="102.72889mm"
   viewBox="0 0 399.42188 364"
   id="svg2"
   version="1.1"
   inkscape:version="0.91 r13725"
   sodipodi:docname="vector_horse_head_logo.svg">
  <defs
     id="defs4" />
  <sodipodi:namedview
     id="base"
     pagecolor="#ffffff"
     bordercolor="#666666"
     borderopacity="1.0"
     inkscape:pageopacity="0.0"
     inkscape:pageshadow="2"
     inkscape:zoom="0.5"
     inkscape:cx="394.45901"
     inkscape:cy="228.24732"
     inkscape:document-units="px"
     inkscape:current-layer="layer1"
     showgrid="false"
     fit-margin-top="0"
     fit-margin-left="0"
     fit-margin-right="0"
     fit-margin-bottom="0"
     inkscape:window-width="1024"
     inkscape:window-height="735"
     inkscape:window-x="0"
     inkscape:window-y="0"
     inkscape:window-maximized="1" />
  <metadata
     id="metadata7">
    <rdf:RDF>
      <cc:Work
         rdf:about="">
        <dc:format>image/svg+xml</dc:format>
        <dc:type
           rdf:resource="http://purl.org/dc/dcmitype/StillImage" />
        <dc:title></dc:title>
      </cc:Work>
    </rdf:RDF>
  </metadata>
  <g
     inkscape:label="Layer 1"
     inkscape:groupmode="layer"
     id="layer1"
     transform="translate(-119.22266,-275.36133)">
    <path
       style="fill:#000000;fill-opacity:0.89696968;stroke:none;stroke-width:20;stroke-linecap:round;stroke-miterlimit:4;stroke-dasharray:none;stroke-opacity:1"
       d="m 319,275.36133 c -92.66581,0.0426 -174.12753,61.38062 -199.77734,150.42578 16.10511,42.28459 36.9669,83.87576 47.77148,102.58984 11.59903,20.09011 40.22993,63.40068 71.30078,100.33399 C 260.92143,570.86897 294.11107,521.12366 309.9082,499.07031 290.01548,486.16768 278.00655,464.07205 278,440.36133 c 0.028,-3.03289 0.25308,-6.06076 0.67383,-9.06445 -13.01807,17.9182 -20.80107,39.10134 -22.48047,61.18554 -0.27533,-3.19528 -0.42193,-6.40035 -0.43945,-9.60742 0.0415,-34.23742 14.76438,-66.813 40.43554,-89.4668 13.2461,-14.6466 32.0626,-23.01674 51.81055,-23.04687 4.75345,0.005 9.49406,0.49353 14.14844,1.45898 -32.63394,6.58783 -56.11285,35.2488 -56.14844,68.54102 0.006,33.20191 23.33492,61.83218 55.85156,68.54297 -4.55727,0.94495 -9.19742,1.43305 -13.85156,1.45703 -6.99057,-0.0241 -13.9381,-1.09525 -20.61133,-3.17774 11.91012,14.98956 15.84621,34.27261 18.47852,52.70118 0.21702,1.51932 0.13598,3.11123 -0.2461,4.59765 -3.02969,11.78654 -15.8699,20.0728 -15.87109,32.87891 0,23.19596 18.80404,42 42,42 10.26428,-0.0188 20.16637,-3.79564 27.83594,-10.61719 0.011,0.0281 0.0222,0.0559 0.0332,0.084 0.11687,-0.13882 0.23281,-0.28089 0.34961,-0.41992 2.99996,-2.72973 5.58869,-5.87962 7.68555,-9.35156 27.91506,-34.5593 52.75008,-72.31738 63.35156,-90.67969 10.77466,-18.66227 31.55191,-60.07477 47.63867,-102.23828 -4.59052,-16.07241 -11.10168,-31.53287 -19.39258,-46.04687 -4.99751,-7.60824 -10.59334,-14.80615 -16.73437,-21.52539 12.10358,-26.90167 14.13281,-57.53711 14.13281,-57.53711 0,0 -28.80453,8.69195 -52.47266,25.77929 -26.73296,-16.31496 -57.42609,-24.99121 -88.74414,-25.08593 -89.68435,0.088 -164.12806,69.31772 -170.71679,158.75976 -0.39499,-4.58082 -0.60545,-9.17569 -0.63086,-13.77344 0.014,-87.78492 66.3701,-161.36036 153.6875,-170.4082 -6.24046,-0.59589 -12.50467,-0.90936 -18.77344,-0.93945 z m 162.22852,153.11523 c 3.8864,0.0676 6.23417,4.32596 4.21679,7.64844 l -14.95703,24.59375 c -2.59545,4.25914 -9.13923,2.55814 -9.33203,-2.42578 l -0.79102,-20.78125 c -0.0912,-2.39493 1.51823,-4.52226 3.84766,-5.08594 l 15.74805,-3.80859 c 0.41486,-0.10041 0.8408,-0.14766 1.26758,-0.14063 z"
       id="path4175"
       inkscape:connector-curvature="0"
       sodipodi:nodetypes="ccscccccccccccccaaccccccsccccccccccccccsccc" />
  </g>
</svg>
